error_03_fix_pit_syu_variant.ufo
<glyph name="ety001_cid02492_EL" format="1">
  <advance width="1000"/>
  <outline>
    <contour>
      <point x="345" y="812" type="curve"/>
      <point x="324" y="830" type="line"/>
      <point x="283" y="812"/>
      <point x="212" y="784"/>
      <point x="162" y="769" type="curve"/>
      <point x="180" y="752" type="line"/>
      <point x="231" y="766"/>
      <point x="297" y="785"/>
    </contour>
    <contour>
      <point x="192" y="760" type="line"/>
      <point x="163" y="769" type="line"/>
      <point x="174" y="538" type="line"/>
      <point x="203" y="538" type="line"/>
    </contour>
  </outline>
</glyph>
<glyph name="ety002_cid02620_H" format="1">
  <advance width="1000"/>
  <outline>
    <contour>
      <point x="577" y="744" type="curve"/>
      <point x="482" y="827" type="line"/>
      <point x="447" y="801"/>
      <point x="386" y="763"/>
      <point x="344" y="743" type="curve"/>
      <point x="416" y="674" type="line"/>
      <point x="461" y="690"/>
      <point x="520" y="716"/>
    </contour>
    <contour>
      <point x="463" y="712" type="line"/>
      <point x="342" y="742" type="line"/>
      <point x="356" y="192" type="line"/>
      <point x="476" y="192" type="line"/>
    </contour>
  </outline>
</glyph>
<glyph name="ety003_cid02953_H" format="1">
  <advance width="1000"/>
  <outline>
    <contour>
      <point x="644" y="412" type="curve"/>
      <point x="549" y="509" type="line"/>
      <point x="507" y="476"/>
      <point x="440" y="437"/>
      <point x="380" y="411" type="curve"/>
      <point x="394" y="385"/>
      <point x="411" y="342"/>
      <point x="418" y="315" type="curve"/>
      <point x="489" y="339"/>
      <point x="574" y="373"/>
    </contour>
    <contour>
      <point x="510" y="410" type="line"/>
      <point x="379" y="410" type="line"/>
      <point x="379" y="-94" type="line"/>
      <point x="510" y="-94" type="line"/>
    </contour>
  </outline>
</glyph>
<glyph name="ety004_cid03136_H" format="1">
  <advance width="1000"/>
  <outline>
    <contour>
      <point x="551" y="792" type="curve"/>
      <point x="504" y="857" type="line"/>
      <point x="465" y="845"/>
      <point x="398" y="823"/>
      <point x="354" y="815" type="curve"/>
      <point x="392" y="757" type="line"/>
      <point x="437" y="762"/>
      <point x="502" y="774"/>
    </contour>
    <contour>
      <point x="454" y="790" type="line"/>
      <point x="354" y="816" type="line"/>
      <point x="367" y="461" type="line"/>
      <point x="466" y="461" type="line"/>
    </contour>
  </outline>
</glyph>
<glyph name="ety005_cid03603_EL" format="1">
  <advance width="1000"/>
  <outline>
    <contour>
      <point x="350" y="573" type="curve"/>
      <point x="323" y="596" type="line"/>
      <point x="280" y="575"/>
      <point x="207" y="549"/>
      <point x="144" y="531" type="curve"/>
      <point x="148" y="523"/>
      <point x="153" y="515"/>
      <point x="155" y="508" type="curve"/>
      <point x="220" y="525"/>
      <point x="295" y="550"/>
    </contour>
    <contour>
      <point x="174" y="521" type="line"/>
      <point x="144" y="530" type="line"/>
      <point x="160" y="125" type="line"/>
      <point x="189" y="125" type="line"/>
    </contour>
  </outline>
</glyph>
<glyph name="ety006_cid03603_H" format="1">
  <advance width="1000"/>
  <outline>
    <contour>
      <point x="377" y="536" type="curve"/>
      <point x="281" y="626" type="line"/>
      <point x="238" y="601"/>
      <point x="171" y="571"/>
      <point x="111" y="550" type="curve"/>
      <point x="125" y="527"/>
      <point x="142" y="487"/>
      <point x="148" y="463" type="curve"/>
      <point x="218" y="481"/>
      <point x="304" y="507"/>
    </contour>
    <contour>
      <point x="240" y="517" type="line"/>
      <point x="111" y="549" type="line"/>
      <point x="124" y="138" type="line"/>
      <point x="253" y="138" type="line"/>
    </contour>
  </outline>
</glyph>
<glyph name="ety009_cid04228_H" format="1">
  <advance width="1000"/>
  <outline>
    <contour>
      <point x="553" y="792" type="curve"/>
      <point x="506" y="857" type="line"/>
      <point x="467" y="845"/>
      <point x="400" y="823"/>
      <point x="356" y="815" type="curve"/>
      <point x="394" y="757" type="line"/>
      <point x="439" y="762"/>
      <point x="504" y="774"/>
    </contour>
    <contour>
      <point x="456" y="790" type="line"/>
      <point x="356" y="816" type="line"/>
      <point x="369" y="461" type="line"/>
      <point x="468" y="461" type="line"/>
    </contour>
  </outline>
</glyph>
<glyph name="ety011_cid04676_H" format="1">
  <advance width="1000"/>
  <outline>
    <contour>
      <point x="557" y="792" type="curve"/>
      <point x="510" y="857" type="line"/>
      <point x="471" y="845"/>
      <point x="404" y="823"/>
      <point x="361" y="815" type="curve"/>
      <point x="399" y="757" type="line"/>
      <point x="444" y="762"/>
      <point x="508" y="774"/>
    </contour>
    <contour>
      <point x="461" y="790" type="line"/>
      <point x="361" y="816" type="line"/>
      <point x="377" y="461" type="line"/>
      <point x="475" y="461" type="line"/>
    </contour>
  </outline>
</glyph>
<glyph name="ety012_cid05045_H" format="1">
  <advance width="1000"/>
  <outline>
    <contour>
      <point x="560" y="744" type="curve"/>
      <point x="461" y="827" type="line"/>
      <point x="425" y="801"/>
      <point x="361" y="763"/>
      <point x="317" y="743" type="curve"/>
      <point x="392" y="674" type="line"/>
      <point x="439" y="690"/>
      <point x="500" y="716"/>
    </contour>
    <contour>
      <point x="442" y="712" type="line"/>
      <point x="316" y="742" type="line"/>
      <point x="331" y="192" type="line"/>
      <point x="456" y="192" type="line"/>
    </contour>
  </outline>
</glyph>
<glyph name="ety014_cid05215_H" format="1">
  <advance width="1000"/>
  <outline>
    <contour>
      <point x="707" y="539" type="line"/>
      <point x="606" y="539" type="line"/>
      <point x="606" y="336" type="line"/>
      <point x="707" y="336" type="line"/>
    </contour>
    <contour>
      <point x="804" y="630" type="curve"/>
      <point x="708" y="660" type="line"/>
      <point x="684" y="624"/>
      <point x="642" y="573"/>
      <point x="606" y="538" type="curve"/>
      <point x="666" y="512" type="line"/>
      <point x="705" y="541"/>
      <point x="757" y="587"/>
    </contour>
  </outline>
</glyph>
<glyph name="ety015_cid05231_EL" format="1">
  <advance width="1000"/>
  <outline>
    <contour>
      <point x="352" y="799" type="curve"/>
      <point x="329" y="820" type="line"/>
      <point x="287" y="814"/>
      <point x="215" y="802"/>
      <point x="164" y="797" type="curve"/>
      <point x="183" y="776" type="line"/>
      <point x="235" y="780"/>
      <point x="303" y="784"/>
    </contour>
    <contour>
      <point x="188" y="798" type="line"/>
      <point x="159" y="798" type="line"/>
      <point x="159" y="520" type="line"/>
      <point x="188" y="520" type="line"/>
    </contour>
  </outline>
</glyph>
<glyph name="ety016_cid05377_H" format="1">
  <advance width="1000"/>
  <outline>
    <contour>
      <point x="584" y="744" type="curve"/>
      <point x="487" y="827" type="line"/>
      <point x="451" y="801"/>
      <point x="389" y="763"/>
      <point x="346" y="743" type="curve"/>
      <point x="419" y="674" type="line"/>
      <point x="465" y="690"/>
      <point x="526" y="716"/>
    </contour>
    <contour>
      <point x="468" y="712" type="line"/>
      <point x="344" y="742" type="line"/>
      <point x="358" y="192" type="line"/>
      <point x="481" y="192" type="line"/>
    </contour>
  </outline>
</glyph>
<glyph name="ety017_cid05562_H" format="1">
  <advance width="1000"/>
  <outline>
    <contour>
      <point x="365" y="778" type="curve"/>
      <point x="299" y="853" type="line"/>
      <point x="249" y="830"/>
      <point x="167" y="797"/>
      <point x="112" y="782" type="curve"/>
      <point x="169" y="711" type="line"/>
      <point x="225" y="725"/>
      <point x="306" y="750"/>
    </contour>
    <contour>
      <point x="249" y="749" type="line"/>
      <point x="111" y="781" type="line"/>
      <point x="133" y="458" type="line"/>
      <point x="269" y="458" type="line"/>
    </contour>
  </outline>
</glyph>
<glyph name="ety018_cid05887_H" format="1">
  <advance width="1000"/>
  <outline>
    <contour>
      <point x="376" y="768" type="curve"/>
      <point x="346" y="848" type="line"/>
      <point x="284" y="839"/>
      <point x="184" y="821"/>
      <point x="123" y="820" type="curve"/>
      <point x="148" y="742" type="line"/>
      <point x="211" y="742"/>
      <point x="311" y="751"/>
    </contour>
    <contour>
      <point x="249" y="789" type="line"/>
      <point x="122" y="820" type="line"/>
      <point x="146" y="444" type="line"/>
      <point x="271" y="444" type="line"/>
    </contour>
  </outline>
</glyph>
<glyph name="ety019_cid06066_H" format="1">
  <advance width="1000"/>
  <outline>
    <contour>
      <point x="701" y="538" type="line"/>
      <point x="603" y="538" type="line"/>
      <point x="603" y="335" type="line"/>
      <point x="701" y="335" type="line"/>
    </contour>
    <contour>
      <point x="810" y="628" type="curve"/>
      <point x="707" y="660" type="line"/>
      <point x="683" y="624"/>
      <point x="641" y="573"/>
      <point x="604" y="538" type="curve"/>
      <point x="668" y="510" type="line"/>
      <point x="708" y="538"/>
      <point x="762" y="584"/>
    </contour>
  </outline>
</glyph>
<glyph name="ety020_cid06351_EL" format="1">
  <advance width="1000"/>
  <outline>
    <contour>
      <point x="460" y="350" type="curve"/>
      <point x="430" y="373" type="line"/>
      <point x="369" y="349"/>
      <point x="260" y="321"/>
      <point x="165" y="301" type="curve"/>
      <point x="170" y="293"/>
      <point x="175" y="283"/>
      <point x="177" y="278" type="curve"/>
      <point x="273" y="296"/>
      <point x="382" y="324"/>
    </contour>
    <contour>
      <point x="195" y="300" type="line"/>
      <point x="165" y="300" type="line"/>
      <point x="165" y="-70" type="line"/>
      <point x="195" y="-70" type="line"/>
    </contour>
  </outline>
</glyph>
<glyph name="ety023_cid06689_EL" format="1">
  <advance width="1000"/>
  <outline>
    <contour>
      <point x="654" y="813" type="curve"/>
      <point x="625" y="834" type="line"/>
      <point x="590" y="804"/>
      <point x="525" y="769"/>
      <point x="469" y="744" type="curve"/>
      <point x="474" y="737"/>
      <point x="478" y="727"/>
      <point x="481" y="721" type="curve"/>
      <point x="539" y="746"/>
      <point x="607" y="779"/>
    </contour>
    <contour>
      <point x="497" y="744" type="line"/>
      <point x="468" y="744" type="line"/>
      <point x="468" y="333" type="line"/>
      <point x="497" y="333" type="line"/>
    </contour>
  </outline>
</glyph>
<glyph name="ety025_cid06915_H" format="1">
  <advance width="1000"/>
  <outline>
    <contour>
      <point x="404" y="782" type="curve"/>
      <point x="324" y="859" type="line"/>
      <point x="282" y="836"/>
      <point x="211" y="811"/>
      <point x="148" y="794" type="curve"/>
      <point x="158" y="773"/>
      <point x="171" y="736"/>
      <point x="176" y="714" type="curve"/>
      <point x="248" y="728"/>
      <point x="334" y="752"/>
    </contour>
    <contour>
      <point x="272" y="756" type="line"/>
      <point x="147" y="792" type="line"/>
      <point x="164" y="466" type="line"/>
      <point x="287" y="466" type="line"/>
    </contour>
  </outline>
</glyph>
<glyph name="ety026_cid06916_H" format="1">
  <advance width="1000"/>
  <outline>
    <contour>
      <point x="602" y="744" type="curve"/>
      <point x="510" y="827" type="line"/>
      <point x="476" y="801"/>
      <point x="417" y="763"/>
      <point x="376" y="743" type="curve"/>
      <point x="446" y="674" type="line"/>
      <point x="490" y="690"/>
      <point x="547" y="716"/>
    </contour>
    <contour>
      <point x="492" y="712" type="line"/>
      <point x="375" y="742" type="line"/>
      <point x="389" y="192" type="line"/>
      <point x="505" y="192" type="line"/>
    </contour>
  </outline>
</glyph>
<glyph name="ety027_cid07452_EL" format="1">
  <advance width="1000"/>
  <outline>
    <contour>
      <point x="678" y="446" type="curve"/>
      <point x="650" y="469" type="line"/>
      <point x="612" y="442"/>
      <point x="542" y="408"/>
      <point x="483" y="382" type="curve"/>
      <point x="487" y="376"/>
      <point x="493" y="366"/>
      <point x="495" y="360" type="curve"/>
      <point x="556" y="384"/>
      <point x="626" y="417"/>
    </contour>
    <contour>
      <point x="513" y="382" type="line"/>
      <point x="482" y="382" type="line"/>
      <point x="482" y="-67" type="line"/>
      <point x="513" y="-67" type="line"/>
    </contour>
  </outline>
</glyph>
<glyph name="ety028_cid07452_H" format="1">
  <advance width="1000"/>
  <outline>
    <contour>
      <point x="710" y="424" type="curve"/>
      <point x="622" y="521" type="line"/>
      <point x="583" y="488"/>
      <point x="521" y="449"/>
      <point x="465" y="423" type="curve"/>
      <point x="478" y="397"/>
      <point x="494" y="354"/>
      <point x="500" y="327" type="curve"/>
      <point x="566" y="351"/>
      <point x="645" y="385"/>
    </contour>
    <contour>
      <point x="586" y="422" type="line"/>
      <point x="464" y="422" type="line"/>
      <point x="464" y="-96" type="line"/>
      <point x="586" y="-96" type="line"/>
    </contour>
  </outline>
</glyph>
<glyph name="ety029_cid07494_H" format="1">
  <advance width="1000"/>
  <outline>
    <contour>
      <point x="681" y="757" type="curve"/>
      <point x="585" y="856" type="line"/>
      <point x="543" y="821"/>
      <point x="478" y="780"/>
      <point x="418" y="753" type="curve"/>
      <point x="433" y="727"/>
      <point x="451" y="683"/>
      <point x="458" y="655" type="curve"/>
      <point x="528" y="680"/>
      <point x="612" y="715"/>
    </contour>
    <contour>
      <point x="547" y="753" type="line"/>
      <point x="419" y="753" type="line"/>
      <point x="419" y="330" type="line"/>
      <point x="547" y="330" type="line"/>
    </contour>
  </outline>
</glyph>
<glyph name="ety032_cid08465_H" format="1">
  <advance width="1000"/>
  <outline>
    <contour>
      <point x="643" y="413" type="curve"/>
      <point x="546" y="509" type="line"/>
      <point x="507" y="476"/>
      <point x="446" y="437"/>
      <point x="391" y="411" type="curve"/>
      <point x="405" y="386"/>
      <point x="423" y="342"/>
      <point x="430" y="316" type="curve"/>
      <point x="496" y="340"/>
      <point x="576" y="374"/>
    </contour>
    <contour>
      <point x="522" y="411" type="line"/>
      <point x="389" y="411" type="line"/>
      <point x="389" y="-93" type="line"/>
      <point x="522" y="-93" type="line"/>
    </contour>
  </outline>
</glyph>
<glyph name="ety034_cid08963_H" format="1">
  <advance width="1000"/>
  <outline>
    <contour>
      <point x="378" y="771" type="curve"/>
      <point x="349" y="848" type="line"/>
      <point x="286" y="839"/>
      <point x="184" y="821"/>
      <point x="121" y="820" type="curve"/>
      <point x="146" y="745" type="line"/>
      <point x="210" y="744"/>
      <point x="313" y="754"/>
    </contour>
    <contour>
      <point x="247" y="791" type="line"/>
      <point x="120" y="821" type="line"/>
      <point x="141" y="505" type="line"/>
      <point x="266" y="505" type="line"/>
    </contour>
  </outline>
</glyph>
<glyph name="ety039_cid09461_H" format="1">
  <advance width="1000"/>
  <outline>
    <contour>
      <point x="728" y="538" type="line"/>
      <point x="635" y="538" type="line"/>
      <point x="635" y="335" type="line"/>
      <point x="728" y="335" type="line"/>
    </contour>
    <contour>
      <point x="828" y="629" type="curve"/>
      <point x="726" y="660" type="line"/>
      <point x="705" y="624"/>
      <point x="668" y="573"/>
      <point x="636" y="538" type="curve"/>
      <point x="699" y="511" type="line"/>
      <point x="735" y="539"/>
      <point x="783" y="585"/>
    </contour>
  </outline>
</glyph>
<glyph name="ety042_cid09567_EL" format="1">
  <advance width="1000"/>
  <outline>
    <contour>
      <point x="516" y="503" type="line"/>
      <point x="485" y="503" type="line"/>
      <point x="485" y="-70" type="line"/>
      <point x="516" y="-70" type="line"/>
    </contour>
    <contour>
      <point x="842" y="797" type="curve"/>
      <point x="815" y="810" type="line"/>
      <point x="720" y="716"/>
      <point x="579" y="584"/>
      <point x="485" y="504" type="curve"/>
      <point x="509" y="490" type="line"/>
      <point x="604" y="572"/>
      <point x="744" y="701"/>
    </contour>
  </outline>
</glyph>
<glyph name="ety043_cid09567_H" format="1">
  <advance width="1000"/>
  <outline>
    <contour>
      <point x="577" y="523" type="line"/>
      <point x="422" y="523" type="line"/>
      <point x="422" y="-94" type="line"/>
      <point x="577" y="-94" type="line"/>
    </contour>
    <contour>
      <point x="904" y="773" type="curve"/>
      <point x="751" y="835" type="line"/>
      <point x="656" y="734"/>
      <point x="519" y="603"/>
      <point x="422" y="522" type="curve"/>
      <point x="565" y="444" type="line"/>
      <point x="662" y="529"/>
      <point x="797" y="659"/>
    </contour>
  </outline>
</glyph>
<glyph name="ety045_cid09772_EL" format="1">
  <advance width="1000"/>
  <outline>
    <contour>
      <point x="329" y="666" type="curve"/>
      <point x="306" y="691" type="line"/>
      <point x="271" y="675"/>
      <point x="211" y="659"/>
      <point x="162" y="647" type="curve"/>
      <point x="167" y="639"/>
      <point x="172" y="628"/>
      <point x="174" y="621" type="curve"/>
      <point x="223" y="631"/>
      <point x="284" y="648"/>
    </contour>
    <contour>
      <point x="191" y="637" type="line"/>
      <point x="161" y="647" type="line"/>
      <point x="171" y="332" type="line"/>
      <point x="201" y="332" type="line"/>
    </contour>
  </outline>
</glyph>
<glyph name="ety046_cid10343_H" format="1">
  <advance width="1000"/>
  <outline>
    <contour>
      <point x="658" y="746" type="curve"/>
      <point x="558" y="849" type="line"/>
      <point x="507" y="815"/>
      <point x="429" y="776"/>
      <point x="358" y="750" type="curve"/>
      <point x="373" y="723"/>
      <point x="392" y="678"/>
      <point x="399" y="651" type="curve"/>
      <point x="480" y="674"/>
      <point x="576" y="707"/>
    </contour>
    <contour>
      <point x="493" y="750" type="line"/>
      <point x="359" y="750" type="line"/>
      <point x="359" y="327" type="line"/>
      <point x="493" y="327" type="line"/>
    </contour>
  </outline>
</glyph>
<glyph name="ety048_cid12473_H" format="1">
  <advance width="1000"/>
  <outline>
    <contour>
      <point x="673" y="408" type="curve"/>
      <point x="572" y="505" type="line"/>
      <point x="527" y="472"/>
      <point x="457" y="433"/>
      <point x="393" y="407" type="curve"/>
      <point x="408" y="381"/>
      <point x="427" y="338"/>
      <point x="433" y="311" type="curve"/>
      <point x="508" y="335"/>
      <point x="598" y="369"/>
    </contour>
    <contour>
      <point x="531" y="406" type="line"/>
      <point x="392" y="406" type="line"/>
      <point x="392" y="-89" type="line"/>
      <point x="531" y="-89" type="line"/>
    </contour>
  </outline>
</glyph>
<glyph name="ety049_cid13083_H" format="1">
  <advance width="1000"/>
  <outline>
    <contour>
      <point x="414" y="792" type="curve"/>
      <point x="333" y="855" type="line"/>
      <point x="281" y="835"/>
      <point x="193" y="806"/>
      <point x="130" y="793" type="curve"/>
      <point x="193" y="738" type="line"/>
      <point x="258" y="749"/>
      <point x="343" y="767"/>
    </contour>
    <contour>
      <point x="254" y="765" type="line"/>
      <point x="131" y="794" type="line"/>
      <point x="146" y="504" type="line"/>
      <point x="267" y="504" type="line"/>
    </contour>
  </outline>
</glyph>
<glyph name="ety051_cid13923_EL" format="1">
  <advance width="1000"/>
  <outline>
    <contour>
      <point x="353" y="795" type="curve"/>
      <point x="335" y="818" type="line"/>
      <point x="288" y="806"/>
      <point x="204" y="784"/>
      <point x="148" y="775" type="curve"/>
      <point x="163" y="754" type="line"/>
      <point x="220" y="762"/>
      <point x="300" y="774"/>
    </contour>
    <contour>
      <point x="180" y="765" type="line"/>
      <point x="149" y="775" type="line"/>
      <point x="176" y="390" type="line"/>
      <point x="205" y="390" type="line"/>
    </contour>
  </outline>
</glyph>
<glyph name="ety052_cid14054_EL" format="1">
  <advance width="1000"/>
  <outline>
    <contour>
      <point x="300" y="778" type="curve"/>
      <point x="282" y="802" type="line"/>
      <point x="234" y="789"/>
      <point x="148" y="768"/>
      <point x="90" y="759" type="curve"/>
      <point x="105" y="738" type="line"/>
      <point x="163" y="745"/>
      <point x="245" y="758"/>
    </contour>
    <contour>
      <point x="122" y="749" type="line"/>
      <point x="91" y="759" type="line"/>
      <point x="102" y="352" type="line"/>
      <point x="132" y="352" type="line"/>
    </contour>
  </outline>
</glyph>
<glyph name="ety055_cid15067_EL" format="1">
  <advance width="1000"/>
  <outline>
    <contour>
      <point x="640" y="448" type="curve"/>
      <point x="612" y="471" type="line"/>
      <point x="569" y="444"/>
      <point x="491" y="409"/>
      <point x="425" y="384" type="curve"/>
      <point x="428" y="376"/>
      <point x="434" y="368"/>
      <point x="436" y="361" type="curve"/>
      <point x="505" y="385"/>
      <point x="583" y="418"/>
    </contour>
    <contour>
      <point x="454" y="384" type="line"/>
      <point x="424" y="384" type="line"/>
      <point x="424" y="-70" type="line"/>
      <point x="454" y="-70" type="line"/>
    </contour>
  </outline>
</glyph>
<glyph name="ety057_cid15285_H" format="1">
  <advance width="1000"/>
  <outline>
    <contour>
      <point x="597" y="744" type="curve"/>
      <point x="503" y="827" type="line"/>
      <point x="468" y="801"/>
      <point x="408" y="763"/>
      <point x="366" y="743" type="curve"/>
      <point x="438" y="674" type="line"/>
      <point x="482" y="690"/>
      <point x="540" y="716"/>
    </contour>
    <contour>
      <point x="484" y="712" type="line"/>
      <point x="365" y="742" type="line"/>
      <point x="379" y="192" type="line"/>
      <point x="498" y="192" type="line"/>
    </contour>
  </outline>
</glyph>
<glyph name="ety060_cid16584_EL" format="1">
  <advance width="1000"/>
  <outline>
    <contour>
      <point x="550" y="786" type="curve"/>
      <point x="529" y="808" type="line"/>
      <point x="500" y="787"/>
      <point x="448" y="757"/>
      <point x="412" y="739" type="curve"/>
      <point x="429" y="719" type="line"/>
      <point x="466" y="735"/>
      <point x="515" y="758"/>
    </contour>
    <contour>
      <point x="441" y="729" type="line"/>
      <point x="413" y="739" type="line"/>
      <point x="425" y="179" type="line"/>
      <point x="453" y="179" type="line"/>
    </contour>
  </outline>
</glyph>
<glyph name="ety061_cid16584_H" format="1">
  <advance width="1000"/>
  <outline>
    <contour>
      <point x="612" y="744" type="curve"/>
      <point x="521" y="827" type="line"/>
      <point x="488" y="801"/>
      <point x="430" y="763"/>
      <point x="389" y="743" type="curve"/>
      <point x="458" y="674" type="line"/>
      <point x="501" y="690"/>
      <point x="557" y="716"/>
    </contour>
    <contour>
      <point x="502" y="712" type="line"/>
      <point x="387" y="742" type="line"/>
      <point x="400" y="192" type="line"/>
      <point x="515" y="192" type="line"/>
    </contour>
  </outline>
</glyph>
<glyph name="ety062_cid16806_EL" format="1">
  <advance width="1000"/>
  <outline>
    <contour>
      <point x="661" y="447" type="curve"/>
      <point x="632" y="470" type="line"/>
      <point x="589" y="443"/>
      <point x="512" y="408"/>
      <point x="445" y="383" type="curve"/>
      <point x="449" y="376"/>
      <point x="455" y="367"/>
      <point x="457" y="360" type="curve"/>
      <point x="525" y="384"/>
      <point x="604" y="417"/>
    </contour>
    <contour>
      <point x="474" y="383" type="line"/>
      <point x="443" y="383" type="line"/>
      <point x="443" y="-71" type="line"/>
      <point x="474" y="-71" type="line"/>
    </contour>
  </outline>
</glyph>
<glyph name="ety064_cid18430_H" format="1">
  <advance width="1000"/>
  <outline>
    <contour>
      <point x="563" y="744" type="curve"/>
      <point x="471" y="827" type="line"/>
      <point x="437" y="801"/>
      <point x="378" y="763"/>
      <point x="337" y="743" type="curve"/>
      <point x="407" y="674" type="line"/>
      <point x="451" y="690"/>
      <point x="508" y="716"/>
    </contour>
    <contour>
      <point x="447" y="713" type="line"/>
      <point x="336" y="742" type="line"/>
      <point x="350" y="192" type="line"/>
      <point x="460" y="192" type="line"/>
    </contour>
  </outline>
</glyph>
<glyph name="ety067_cid19418_H" format="1">
  <advance width="1000"/>
  <outline>
    <contour>
      <point x="639" y="412" type="curve"/>
      <point x="540" y="509" type="line"/>
      <point x="496" y="476"/>
      <point x="427" y="437"/>
      <point x="364" y="411" type="curve"/>
      <point x="379" y="385"/>
      <point x="398" y="342"/>
      <point x="404" y="315" type="curve"/>
      <point x="477" y="339"/>
      <point x="565" y="373"/>
    </contour>
    <contour>
      <point x="499" y="410" type="line"/>
      <point x="363" y="410" type="line"/>
      <point x="363" y="-94" type="line"/>
      <point x="499" y="-94" type="line"/>
    </contour>
  </outline>
</glyph>
<glyph name="ety068_cid19752_H" format="1">
  <advance width="1000"/>
  <outline>
    <contour>
      <point x="391" y="776" type="curve"/>
      <point x="325" y="856" type="line"/>
      <point x="270" y="833"/>
      <point x="178" y="801"/>
      <point x="115" y="788" type="curve"/>
      <point x="166" y="720" type="line"/>
      <point x="231" y="730"/>
      <point x="319" y="751"/>
    </contour>
    <contour>
      <point x="241" y="787" type="line"/>
      <point x="115" y="789" type="line"/>
      <point x="138" y="460" type="line"/>
      <point x="264" y="460" type="line"/>
    </contour>
  </outline>
</glyph>
<glyph name="ety069_cid20073_EL" format="1">
  <advance width="1000"/>
  <outline>
    <contour>
      <point x="328" y="540" type="curve"/>
      <point x="305" y="566" type="line"/>
      <point x="268" y="550"/>
      <point x="205" y="533"/>
      <point x="153" y="522" type="curve"/>
      <point x="157" y="513"/>
      <point x="162" y="503"/>
      <point x="165" y="496" type="curve"/>
      <point x="217" y="506"/>
      <point x="281" y="523"/>
    </contour>
    <contour>
      <point x="182" y="512" type="line"/>
      <point x="152" y="522" type="line"/>
      <point x="160" y="274" type="line"/>
      <point x="189" y="274" type="line"/>
    </contour>
  </outline>
</glyph>
<glyph name="ety070_cid20215_EL" format="1">
  <advance width="1000"/>
  <outline>
    <contour>
      <point x="568" y="591" type="curve"/>
      <point x="545" y="617" type="line"/>
      <point x="516" y="595"/>
      <point x="468" y="569"/>
      <point x="427" y="549" type="curve"/>
      <point x="432" y="540"/>
      <point x="438" y="530"/>
      <point x="440" y="523" type="curve"/>
      <point x="480" y="542"/>
      <point x="530" y="567"/>
    </contour>
    <contour>
      <point x="461" y="544" type="line"/>
      <point x="431" y="554" type="line"/>
      <point x="441" y="143" type="line"/>
      <point x="471" y="143" type="line"/>
    </contour>
  </outline>
</glyph>
<glyph name="ety071_cid20216_EL" format="1">
  <advance width="1000"/>
  <outline>
    <contour>
      <point x="572" y="597" type="curve"/>
      <point x="549" y="622" type="line"/>
      <point x="520" y="601"/>
      <point x="472" y="574"/>
      <point x="431" y="555" type="curve"/>
      <point x="436" y="546"/>
      <point x="442" y="536"/>
      <point x="444" y="529" type="curve"/>
      <point x="484" y="548"/>
      <point x="534" y="572"/>
    </contour>
    <contour>
      <point x="461" y="544" type="line"/>
      <point x="431" y="554" type="line"/>
      <point x="441" y="143" type="line"/>
      <point x="471" y="143" type="line"/>
    </contour>
  </outline>
</glyph>
<glyph name="ety072_cid20216_H" format="1">
  <advance width="1000"/>
  <outline>
    <contour>
      <point x="604" y="523" type="curve"/>
      <point x="553" y="618" type="line"/>
      <point x="509" y="594"/>
      <point x="446" y="566"/>
      <point x="394" y="547" type="curve"/>
      <point x="405" y="523"/>
      <point x="417" y="488"/>
      <point x="422" y="466" type="curve"/>
      <point x="475" y="480"/>
      <point x="544" y="500"/>
    </contour>
    <contour>
      <point x="508" y="516" type="line"/>
      <point x="395" y="546" type="line"/>
      <point x="407" y="153" type="line"/>
      <point x="519" y="153" type="line"/>
    </contour>
  </outline>
</glyph>
<glyph name="ety074_cid21873_H" format="1">
  <advance width="1000"/>
  <outline>
    <contour>
      <point x="638" y="413" type="curve"/>
      <point x="539" y="509" type="line"/>
      <point x="499" y="476"/>
      <point x="437" y="437"/>
      <point x="380" y="411" type="curve"/>
      <point x="395" y="386"/>
      <point x="413" y="342"/>
      <point x="420" y="316" type="curve"/>
      <point x="488" y="340"/>
      <point x="569" y="374"/>
    </contour>
    <contour>
      <point x="515" y="411" type="line"/>
      <point x="379" y="411" type="line"/>
      <point x="379" y="-93" type="line"/>
      <point x="515" y="-93" type="line"/>
    </contour>
  </outline>
</glyph>
<glyph name="ety075_cid22427_H" format="1">
  <advance width="1000"/>
  <outline>
    <contour>
      <point x="548" y="786" type="curve"/>
      <point x="481" y="867" type="line"/>
      <point x="449" y="845"/>
      <point x="390" y="811"/>
      <point x="353" y="796" type="curve"/>
      <point x="400" y="733" type="line"/>
      <point x="441" y="744"/>
      <point x="494" y="764"/>
    </contour>
    <contour>
      <point x="458" y="770" type="line"/>
      <point x="353" y="797" type="line"/>
      <point x="365" y="459" type="line"/>
      <point x="469" y="459" type="line"/>
    </contour>
  </outline>
</glyph>
<glyph name="ety078_cid22620_EL" format="1">
  <advance width="1000"/>
  <outline>
    <contour>
      <point x="234" y="801" type="curve"/>
      <point x="212" y="826" type="line"/>
      <point x="182" y="802"/>
      <point x="132" y="772"/>
      <point x="90" y="750" type="curve"/>
      <point x="95" y="741"/>
      <point x="100" y="731"/>
      <point x="103" y="725" type="curve"/>
      <point x="144" y="746"/>
      <point x="196" y="773"/>
    </contour>
    <contour>
      <point x="119" y="739" type="line"/>
      <point x="89" y="749" type="line"/>
      <point x="110" y="201" type="line"/>
      <point x="139" y="201" type="line"/>
    </contour>
  </outline>
</glyph>
<glyph name="ety079_cid22620_H" format="1">
  <advance width="1000"/>
  <outline>
    <contour>
      <point x="255" y="721" type="curve"/>
      <point x="189" y="838" type="line"/>
      <point x="151" y="818"/>
      <point x="97" y="795"/>
      <point x="52" y="780" type="curve"/>
      <point x="64" y="751"/>
      <point x="78" y="708"/>
      <point x="83" y="680" type="curve"/>
      <point x="132" y="689"/>
      <point x="193" y="703"/>
    </contour>
    <contour>
      <point x="160" y="750" type="line"/>
      <point x="53" y="780" type="line"/>
      <point x="70" y="230" type="line"/>
      <point x="176" y="230" type="line"/>
    </contour>
  </outline>
</glyph>
<glyph name="ety080_cid24094_H" format="1">
  <advance width="1000"/>
  <outline>
    <contour>
      <point x="636" y="412" type="curve"/>
      <point x="535" y="509" type="line"/>
      <point x="490" y="476"/>
      <point x="420" y="437"/>
      <point x="356" y="411" type="curve"/>
      <point x="371" y="385"/>
      <point x="390" y="342"/>
      <point x="396" y="315" type="curve"/>
      <point x="471" y="339"/>
      <point x="561" y="373"/>
    </contour>
    <contour>
      <point x="501" y="410" type="line"/>
      <point x="356" y="410" type="line"/>
      <point x="356" y="-94" type="line"/>
      <point x="501" y="-94" type="line"/>
    </contour>
  </outline>
</glyph>
<glyph name="ety087_cid25419_H" format="1">
  <advance width="1000"/>
  <outline>
    <contour>
      <point x="654" y="403" type="curve"/>
      <point x="553" y="500" type="line"/>
      <point x="514" y="470"/>
      <point x="452" y="435"/>
      <point x="395" y="411" type="curve"/>
      <point x="410" y="385"/>
      <point x="429" y="342"/>
      <point x="435" y="315" type="curve"/>
      <point x="503" y="336"/>
      <point x="585" y="367"/>
    </contour>
    <contour>
      <point x="534" y="410" type="line"/>
      <point x="395" y="410" type="line"/>
      <point x="395" y="-94" type="line"/>
      <point x="534" y="-94" type="line"/>
    </contour>
  </outline>
</glyph>
<glyph name="ety088_cid25526_EL" format="1">
  <advance width="1000"/>
  <outline>
    <contour>
      <point x="259" y="437" type="curve"/>
      <point x="231" y="460" type="line"/>
      <point x="196" y="433"/>
      <point x="134" y="399"/>
      <point x="81" y="375" type="curve"/>
      <point x="85" y="368"/>
      <point x="90" y="358"/>
      <point x="93" y="352" type="curve"/>
      <point x="148" y="376"/>
      <point x="212" y="408"/>
    </contour>
    <contour>
      <point x="110" y="374" type="line"/>
      <point x="80" y="374" type="line"/>
      <point x="80" y="-76" type="line"/>
      <point x="110" y="-76" type="line"/>
    </contour>
  </outline>
</glyph>
<glyph name="ety090_cid25527_H" format="1">
  <advance width="1000"/>
  <outline>
    <contour>
      <point x="286" y="422" type="curve"/>
      <point x="194" y="523" type="line"/>
      <point x="157" y="490"/>
      <point x="100" y="452"/>
      <point x="49" y="426" type="curve"/>
      <point x="63" y="399"/>
      <point x="81" y="357"/>
      <point x="88" y="331" type="curve"/>
      <point x="148" y="353"/>
      <point x="222" y="385"/>
    </contour>
    <contour>
      <point x="177" y="425" type="line"/>
      <point x="48" y="425" type="line"/>
      <point x="48" y="-93" type="line"/>
      <point x="177" y="-93" type="line"/>
    </contour>
  </outline>
</glyph>
<glyph name="ety091_cid25592_EL" format="1">
  <advance width="1000"/>
  <outline>
    <contour>
      <point x="359" y="793" type="curve"/>
      <point x="336" y="814" type="line"/>
      <point x="289" y="800"/>
      <point x="207" y="779"/>
      <point x="150" y="769" type="curve"/>
      <point x="169" y="750" type="line"/>
      <point x="227" y="759"/>
      <point x="304" y="771"/>
    </contour>
    <contour>
      <point x="179" y="770" type="line"/>
      <point x="150" y="770" type="line"/>
      <point x="168" y="439" type="line"/>
      <point x="196" y="439" type="line"/>
    </contour>
  </outline>
</glyph>
<glyph name="ety092_cid25592_H" format="1">
  <advance width="1000"/>
  <outline>
    <contour>
      <point x="385" y="769" type="curve"/>
      <point x="318" y="851" type="line"/>
      <point x="265" y="836"/>
      <point x="173" y="812"/>
      <point x="112" y="805" type="curve"/>
      <point x="160" y="739" type="line"/>
      <point x="224" y="743"/>
      <point x="310" y="752"/>
    </contour>
    <contour>
      <point x="249" y="772" type="line"/>
      <point x="115" y="805" type="line"/>
      <point x="134" y="459" type="line"/>
      <point x="266" y="459" type="line"/>
    </contour>
  </outline>
</glyph>
<glyph name="ety093_cid25593_H" format="1">
  <advance width="1000"/>
  <outline>
    <contour>
      <point x="387" y="769" type="curve"/>
      <point x="320" y="851" type="line"/>
      <point x="267" y="836"/>
      <point x="175" y="812"/>
      <point x="114" y="805" type="curve"/>
      <point x="162" y="739" type="line"/>
      <point x="226" y="743"/>
      <point x="312" y="752"/>
    </contour>
    <contour>
      <point x="249" y="772" type="line"/>
      <point x="115" y="805" type="line"/>
      <point x="134" y="459" type="line"/>
      <point x="266" y="459" type="line"/>
    </contour>
  </outline>
</glyph>
<glyph name="ety094_cid25657_EL" format="1">
  <advance width="1000"/>
  <outline>
    <contour>
      <point x="179" y="767" type="line"/>
      <point x="146" y="777" type="line"/>
      <point x="158" y="409" type="line"/>
      <point x="189" y="409" type="line"/>
    </contour>
    <contour>
      <point x="330" y="802" type="curve"/>
      <point x="307" y="826" type="line"/>
      <point x="269" y="810"/>
      <point x="201" y="791"/>
      <point x="146" y="778" type="curve"/>
      <point x="150" y="770"/>
      <point x="155" y="761"/>
      <point x="158" y="754" type="curve"/>
      <point x="214" y="765"/>
      <point x="281" y="783"/>
    </contour>
  </outline>
</glyph>
<glyph name="ety095_cid25658_EL" format="1">
  <advance width="1000"/>
  <outline>
    <contour>
      <point x="325" y="791" type="curve"/>
      <point x="304" y="808" type="line"/>
      <point x="264" y="793"/>
      <point x="194" y="771"/>
      <point x="144" y="761" type="curve"/>
      <point x="162" y="742" type="line"/>
      <point x="213" y="753"/>
      <point x="278" y="767"/>
    </contour>
    <contour>
      <point x="175" y="750" type="line"/>
      <point x="144" y="760" type="line"/>
      <point x="159" y="375" type="line"/>
      <point x="188" y="375" type="line"/>
    </contour>
  </outline>
</glyph>
<glyph name="ety096_cid25658_H" format="1">
  <advance width="1000"/>
  <outline>
    <contour>
      <point x="334" y="763" type="curve"/>
      <point x="281" y="838" type="line"/>
      <point x="235" y="831"/>
      <point x="156" y="815"/>
      <point x="105" y="813" type="curve"/>
      <point x="146" y="747" type="line"/>
      <point x="199" y="747"/>
      <point x="274" y="751"/>
    </contour>
    <contour>
      <point x="221" y="784" type="line"/>
      <point x="104" y="814" type="line"/>
      <point x="126" y="374" type="line"/>
      <point x="241" y="374" type="line"/>
    </contour>
  </outline>
</glyph>
<glyph name="ety098_cid25740_H" format="1">
  <advance width="1000"/>
  <outline>
    <contour>
      <point x="340" y="791" type="curve"/>
      <point x="284" y="848" type="line"/>
      <point x="246" y="841"/>
      <point x="181" y="827"/>
      <point x="137" y="823" type="curve"/>
      <point x="182" y="772" type="line"/>
      <point x="228" y="774"/>
      <point x="290" y="778"/>
    </contour>
    <contour>
      <point x="252" y="824" type="line"/>
      <point x="137" y="824" type="line"/>
      <point x="137" y="527" type="line"/>
      <point x="252" y="527" type="line"/>
    </contour>
  </outline>
</glyph>
<glyph name="ety102_cid26822_EL" format="1">
  <advance width="1000"/>
  <outline>
    <contour>
      <point x="325" y="809" type="curve"/>
      <point x="304" y="825" type="line"/>
      <point x="264" y="811"/>
      <point x="194" y="789"/>
      <point x="144" y="778" type="curve"/>
      <point x="162" y="760" type="line"/>
      <point x="213" y="770"/>
      <point x="278" y="784"/>
    </contour>
    <contour>
      <point x="176" y="768" type="line"/>
      <point x="145" y="777" type="line"/>
      <point x="159" y="409" type="line"/>
      <point x="188" y="409" type="line"/>
    </contour>
  </outline>
</glyph>
<glyph name="ety103_cid26822_H" format="1">
  <advance width="1000"/>
  <outline>
    <contour>
      <point x="336" y="765" type="curve"/>
      <point x="281" y="843" type="line"/>
      <point x="234" y="836"/>
      <point x="155" y="820"/>
      <point x="104" y="818" type="curve"/>
      <point x="147" y="750" type="line"/>
      <point x="200" y="749"/>
      <point x="276" y="753"/>
    </contour>
    <contour>
      <point x="221" y="789" type="line"/>
      <point x="104" y="819" type="line"/>
      <point x="123" y="443" type="line"/>
      <point x="238" y="443" type="line"/>
    </contour>
  </outline>
</glyph>
<glyph name="ety105_cid26823_H" format="1">
  <advance width="1000"/>
  <outline>
    <contour>
      <point x="334" y="766" type="curve"/>
      <point x="281" y="845" type="line"/>
      <point x="235" y="837"/>
      <point x="156" y="821"/>
      <point x="105" y="819" type="curve"/>
      <point x="146" y="749" type="line"/>
      <point x="199" y="749"/>
      <point x="274" y="753"/>
    </contour>
    <contour>
      <point x="221" y="789" type="line"/>
      <point x="104" y="819" type="line"/>
      <point x="123" y="443" type="line"/>
      <point x="238" y="443" type="line"/>
    </contour>
  </outline>
</glyph>
<glyph name="ety106_cid26829_H" format="1">
  <advance width="1000"/>
  <outline>
    <contour>
      <point x="706" y="539" type="line"/>
      <point x="604" y="539" type="line"/>
      <point x="604" y="336" type="line"/>
      <point x="706" y="336" type="line"/>
    </contour>
    <contour>
      <point x="803" y="630" type="curve"/>
      <point x="706" y="660" type="line"/>
      <point x="682" y="624"/>
      <point x="640" y="573"/>
      <point x="603" y="538" type="curve"/>
      <point x="664" y="512" type="line"/>
      <point x="703" y="541"/>
      <point x="756" y="587"/>
    </contour>
  </outline>
</glyph>
<glyph name="ety107_cid27856_EL" format="1">
  <advance width="1000"/>
  <outline>
    <contour>
      <point x="356" y="802" type="curve"/>
      <point x="334" y="827" type="line"/>
      <point x="279" y="805"/>
      <point x="182" y="778"/>
      <point x="102" y="760" type="curve"/>
      <point x="106" y="752"/>
      <point x="111" y="741"/>
      <point x="114" y="734" type="curve"/>
      <point x="193" y="752"/>
      <point x="291" y="776"/>
    </contour>
    <contour>
      <point x="131" y="749" type="line"/>
      <point x="101" y="759" type="line"/>
      <point x="113" y="298" type="line"/>
      <point x="142" y="298" type="line"/>
    </contour>
  </outline>
</glyph>
<glyph name="ety108_cid27856_H" format="1">
  <advance width="1000"/>
  <outline>
    <contour>
      <point x="404" y="742" type="curve"/>
      <point x="328" y="848" type="line"/>
      <point x="262" y="827"/>
      <point x="167" y="805"/>
      <point x="83" y="791" type="curve"/>
      <point x="96" y="764"/>
      <point x="111" y="720"/>
      <point x="116" y="693" type="curve"/>
      <point x="205" y="702"/>
      <point x="313" y="719"/>
    </contour>
    <contour>
      <point x="211" y="755" type="line"/>
      <point x="83" y="790" type="line"/>
      <point x="92" y="316" type="line"/>
      <point x="220" y="316" type="line"/>
    </contour>
  </outline>
</glyph>
<glyph name="ety110_cid28750_EL" format="1">
  <advance width="1000"/>
  <outline>
    <contour>
      <point x="351" y="808" type="curve"/>
      <point x="329" y="826" type="line"/>
      <point x="284" y="806"/>
      <point x="204" y="777"/>
      <point x="148" y="762" type="curve"/>
      <point x="167" y="742" type="line"/>
      <point x="224" y="758"/>
      <point x="298" y="779"/>
    </contour>
    <contour>
      <point x="180" y="754" type="line"/>
      <point x="149" y="765" type="line"/>
      <point x="173" y="414" type="line"/>
      <point x="202" y="414" type="line"/>
    </contour>
  </outline>
</glyph>
<glyph name="ety111_cid28750_H" format="1">
  <advance width="1000"/>
  <outline>
    <contour>
      <point x="365" y="774" type="curve"/>
      <point x="299" y="853" type="line"/>
      <point x="249" y="828"/>
      <point x="167" y="794"/>
      <point x="112" y="778" type="curve"/>
      <point x="169" y="703" type="line"/>
      <point x="225" y="718"/>
      <point x="306" y="744"/>
    </contour>
    <contour>
      <point x="250" y="744" type="line"/>
      <point x="112" y="777" type="line"/>
      <point x="134" y="435" type="line"/>
      <point x="270" y="435" type="line"/>
    </contour>
  </outline>
</glyph>
<glyph name="ety112_cid28766_EL" format="1">
  <advance width="1000"/>
  <outline>
    <contour>
      <point x="349" y="806" type="curve"/>
      <point x="329" y="822" type="line"/>
      <point x="286" y="803"/>
      <point x="209" y="773"/>
      <point x="155" y="758" type="curve"/>
      <point x="172" y="741" type="line"/>
      <point x="227" y="757"/>
      <point x="299" y="778"/>
    </contour>
    <contour>
      <point x="186" y="754" type="line"/>
      <point x="156" y="758" type="line"/>
      <point x="168" y="415" type="line"/>
      <point x="198" y="415" type="line"/>
    </contour>
  </outline>
</glyph>
<glyph name="ety113_cid28766_H" format="1">
  <advance width="1000"/>
  <outline>
    <contour>
      <point x="388" y="779" type="curve"/>
      <point x="326" y="855" type="line"/>
      <point x="273" y="832"/>
      <point x="182" y="799"/>
      <point x="121" y="785" type="curve"/>
      <point x="169" y="719" type="line"/>
      <point x="232" y="731"/>
      <point x="319" y="752"/>
    </contour>
    <contour>
      <point x="246" y="784" type="line"/>
      <point x="119" y="787" type="line"/>
      <point x="138" y="452" type="line"/>
      <point x="265" y="452" type="line"/>
    </contour>
  </outline>
</glyph>
<glyph name="ety115_cid28767_H" format="1">
  <advance width="1000"/>
  <outline>
    <contour>
      <point x="387" y="763" type="curve"/>
      <point x="325" y="852" type="line"/>
      <point x="270" y="829"/>
      <point x="180" y="797"/>
      <point x="120" y="784" type="curve"/>
      <point x="173" y="700" type="line"/>
      <point x="234" y="712"/>
      <point x="323" y="736"/>
    </contour>
    <contour>
      <point x="247" y="782" type="line"/>
      <point x="120" y="785" type="line"/>
      <point x="144" y="434" type="line"/>
      <point x="271" y="434" type="line"/>
    </contour>
  </outline>
</glyph>
<glyph name="ety116_cid29293_H" format="1">
  <advance width="1000"/>
  <outline>
    <contour>
      <point x="658" y="413" type="curve"/>
      <point x="557" y="509" type="line"/>
      <point x="517" y="476"/>
      <point x="453" y="437"/>
      <point x="395" y="411" type="curve"/>
      <point x="410" y="386"/>
      <point x="429" y="342"/>
      <point x="435" y="316" type="curve"/>
      <point x="505" y="340"/>
      <point x="588" y="374"/>
    </contour>
    <contour>
      <point x="533" y="411" type="line"/>
      <point x="394" y="411" type="line"/>
      <point x="394" y="-93" type="line"/>
      <point x="533" y="-93" type="line"/>
    </contour>
  </outline>
</glyph>
<glyph name="ety117_cid29366_H" format="1">
  <advance width="1000"/>
  <outline>
    <contour>
      <point x="592" y="744" type="curve"/>
      <point x="497" y="827" type="line"/>
      <point x="462" y="801"/>
      <point x="401" y="763"/>
      <point x="359" y="743" type="curve"/>
      <point x="431" y="674" type="line"/>
      <point x="476" y="690"/>
      <point x="535" y="716"/>
    </contour>
    <contour>
      <point x="478" y="712" type="line"/>
      <point x="357" y="742" type="line"/>
      <point x="371" y="192" type="line"/>
      <point x="491" y="192" type="line"/>
    </contour>
  </outline>
</glyph>
<glyph name="ety118_cid29367_H" format="1">
  <advance width="1000"/>
  <outline>
    <contour>
      <point x="572" y="725" type="curve"/>
      <point x="496" y="826" type="line"/>
      <point x="462" y="800"/>
      <point x="401" y="760"/>
      <point x="363" y="742" type="curve"/>
      <point x="418" y="660" type="line"/>
      <point x="461" y="674"/>
      <point x="516" y="700"/>
    </contour>
    <contour>
      <point x="479" y="712" type="line"/>
      <point x="362" y="742" type="line"/>
      <point x="376" y="192" type="line"/>
      <point x="492" y="192" type="line"/>
    </contour>
  </outline>
</glyph>
<glyph name="ety120_cid29505_H" format="1">
  <advance width="1000"/>
  <outline>
    <contour>
      <point x="506" y="263" type="curve"/>
      <point x="415" y="351" type="line"/>
      <point x="341" y="332"/>
      <point x="225" y="311"/>
      <point x="121" y="297" type="curve"/>
      <point x="133" y="274"/>
      <point x="148" y="234"/>
      <point x="153" y="210" type="curve"/>
      <point x="264" y="220"/>
      <point x="398" y="239"/>
    </contour>
    <contour>
      <point x="259" y="297" type="line"/>
      <point x="120" y="297" type="line"/>
      <point x="120" y="-95" type="line"/>
      <point x="259" y="-95" type="line"/>
    </contour>
  </outline>
</glyph>
<glyph name="ety121_cid32467_EL" format="1">
  <advance width="1000"/>
  <outline>
    <contour>
      <point x="636" y="813" type="curve"/>
      <point x="608" y="834" type="line"/>
      <point x="573" y="804"/>
      <point x="507" y="769"/>
      <point x="451" y="744" type="curve"/>
      <point x="456" y="737"/>
      <point x="461" y="727"/>
      <point x="464" y="721" type="curve"/>
      <point x="522" y="746"/>
      <point x="589" y="779"/>
    </contour>
    <contour>
      <point x="479" y="744" type="line"/>
      <point x="450" y="744" type="line"/>
      <point x="450" y="333" type="line"/>
      <point x="479" y="333" type="line"/>
    </contour>
  </outline>
</glyph>
<glyph name="ety123_cid33247_EL" format="1">
  <advance width="1000"/>
  <outline>
    <contour>
      <point x="325" y="809" type="curve"/>
      <point x="304" y="825" type="line"/>
      <point x="264" y="811"/>
      <point x="194" y="789"/>
      <point x="144" y="778" type="curve"/>
      <point x="162" y="760" type="line"/>
      <point x="213" y="770"/>
      <point x="278" y="784"/>
    </contour>
    <contour>
      <point x="175" y="768" type="line"/>
      <point x="145" y="777" type="line"/>
      <point x="158" y="442" type="line"/>
      <point x="187" y="442" type="line"/>
    </contour>
  </outline>
</glyph>
<glyph name="ety124_cid33247_H" format="1">
  <advance width="1000"/>
  <outline>
    <contour>
      <point x="334" y="768" type="curve"/>
      <point x="281" y="845" type="line"/>
      <point x="235" y="837"/>
      <point x="156" y="821"/>
      <point x="105" y="819" type="curve"/>
      <point x="146" y="752" type="line"/>
      <point x="199" y="752"/>
      <point x="274" y="756"/>
    </contour>
    <contour>
      <point x="221" y="790" type="line"/>
      <point x="104" y="819" type="line"/>
      <point x="123" y="454" type="line"/>
      <point x="238" y="454" type="line"/>
    </contour>
  </outline>
</glyph>
<glyph name="ety126_cid33353_EL" format="1">
  <advance width="1000"/>
  <outline>
    <contour>
      <point x="346" y="799" type="curve"/>
      <point x="324" y="824" type="line"/>
      <point x="280" y="799"/>
      <point x="206" y="768"/>
      <point x="144" y="746" type="curve"/>
      <point x="149" y="737"/>
      <point x="154" y="727"/>
      <point x="157" y="720" type="curve"/>
      <point x="218" y="742"/>
      <point x="293" y="771"/>
    </contour>
    <contour>
      <point x="175" y="735" type="line"/>
      <point x="144" y="745" type="line"/>
      <point x="166" y="184" type="line"/>
      <point x="195" y="184" type="line"/>
    </contour>
  </outline>
</glyph>
<glyph name="ety129_cid33354_H" format="1">
  <advance width="1000"/>
  <outline>
    <contour>
      <point x="360" y="733" type="curve"/>
      <point x="301" y="851" type="line"/>
      <point x="246" y="826"/>
      <point x="170" y="798"/>
      <point x="105" y="779" type="curve"/>
      <point x="117" y="750"/>
      <point x="132" y="707"/>
      <point x="137" y="679" type="curve"/>
      <point x="204" y="692"/>
      <point x="286" y="711"/>
    </contour>
    <contour>
      <point x="235" y="742" type="line"/>
      <point x="105" y="778" type="line"/>
      <point x="122" y="228" type="line"/>
      <point x="251" y="228" type="line"/>
    </contour>
  </outline>
</glyph>
<glyph name="ety130_cid33359_EL" format="1">
  <advance width="1000"/>
  <outline>
    <contour>
      <point x="349" y="806" type="curve"/>
      <point x="329" y="822" type="line"/>
      <point x="286" y="803"/>
      <point x="209" y="773"/>
      <point x="155" y="758" type="curve"/>
      <point x="172" y="741" type="line"/>
      <point x="227" y="757"/>
      <point x="299" y="778"/>
    </contour>
    <contour>
      <point x="186" y="755" type="line"/>
      <point x="156" y="758" type="line"/>
      <point x="172" y="406" type="line"/>
      <point x="202" y="406" type="line"/>
    </contour>
  </outline>
</glyph>
<glyph name="ety132_cid33364_EL" format="1">
  <advance width="1000"/>
  <outline>
    <contour>
      <point x="325" y="815" type="curve"/>
      <point x="304" y="831" type="line"/>
      <point x="264" y="817"/>
      <point x="194" y="795"/>
      <point x="144" y="784" type="curve"/>
      <point x="162" y="766" type="line"/>
      <point x="213" y="776"/>
      <point x="278" y="790"/>
    </contour>
    <contour>
      <point x="174" y="773" type="line"/>
      <point x="144" y="783" type="line"/>
      <point x="157" y="431" type="line"/>
      <point x="186" y="431" type="line"/>
    </contour>
  </outline>
</glyph>
<glyph name="ety133_cid33364_H" format="1">
  <advance width="1000"/>
  <outline>
    <contour>
      <point x="334" y="781" type="curve"/>
      <point x="281" y="856" type="line"/>
      <point x="235" y="849"/>
      <point x="156" y="833"/>
      <point x="105" y="831" type="curve"/>
      <point x="146" y="765" type="line"/>
      <point x="199" y="765"/>
      <point x="274" y="769"/>
    </contour>
    <contour>
      <point x="220" y="803" type="line"/>
      <point x="104" y="832" type="line"/>
      <point x="122" y="473" type="line"/>
      <point x="237" y="473" type="line"/>
    </contour>
  </outline>
</glyph>
<glyph name="ety136_cid33594_H" format="1">
  <advance width="1000"/>
  <outline>
    <contour>
      <point x="727" y="539" type="line"/>
      <point x="631" y="539" type="line"/>
      <point x="631" y="336" type="line"/>
      <point x="727" y="336" type="line"/>
    </contour>
    <contour>
      <point x="818" y="630" type="curve"/>
      <point x="727" y="660" type="line"/>
      <point x="704" y="624"/>
      <point x="665" y="573"/>
      <point x="630" y="538" type="curve"/>
      <point x="687" y="512" type="line"/>
      <point x="724" y="541"/>
      <point x="774" y="587"/>
    </contour>
  </outline>
</glyph>
<glyph name="ety139_cid34471_EL" format="1">
  <advance width="1000"/>
  <outline>
    <contour>
      <point x="460" y="352" type="curve"/>
      <point x="430" y="375" type="line"/>
      <point x="369" y="351"/>
      <point x="260" y="323"/>
      <point x="165" y="303" type="curve"/>
      <point x="170" y="295"/>
      <point x="175" y="285"/>
      <point x="177" y="279" type="curve"/>
      <point x="273" y="298"/>
      <point x="382" y="326"/>
    </contour>
    <contour>
      <point x="195" y="302" type="line"/>
      <point x="165" y="302" type="line"/>
      <point x="165" y="-68" type="line"/>
      <point x="195" y="-68" type="line"/>
    </contour>
  </outline>
</glyph>
<glyph name="ety144_cid35507_EL" format="1">
  <advance width="1000"/>
  <outline>
    <contour>
      <point x="350" y="612" type="curve"/>
      <point x="323" y="634" type="line"/>
      <point x="280" y="614"/>
      <point x="207" y="587"/>
      <point x="144" y="570" type="curve"/>
      <point x="148" y="562"/>
      <point x="153" y="553"/>
      <point x="155" y="546" type="curve"/>
      <point x="220" y="564"/>
      <point x="295" y="588"/>
    </contour>
    <contour>
      <point x="175" y="558" type="line"/>
      <point x="144" y="568" type="line"/>
      <point x="161" y="136" type="line"/>
      <point x="190" y="136" type="line"/>
    </contour>
  </outline>
</glyph>
<glyph name="ety145_cid35507_H" format="1">
  <advance width="1000"/>
  <outline>
    <contour>
      <point x="377" y="573" type="curve"/>
      <point x="281" y="669" type="line"/>
      <point x="238" y="643"/>
      <point x="171" y="611"/>
      <point x="111" y="589" type="curve"/>
      <point x="125" y="564"/>
      <point x="142" y="522"/>
      <point x="148" y="496" type="curve"/>
      <point x="218" y="515"/>
      <point x="304" y="543"/>
    </contour>
    <contour>
      <point x="240" y="554" type="line"/>
      <point x="111" y="588" type="line"/>
      <point x="124" y="152" type="line"/>
      <point x="253" y="152" type="line"/>
    </contour>
  </outline>
</glyph>
<glyph name="ety146_cid35811_H" format="1">
  <advance width="1000"/>
  <outline>
    <contour>
      <point x="557" y="470" type="line"/>
      <point x="444" y="470" type="line"/>
      <point x="444" y="335" type="line"/>
      <point x="557" y="335" type="line"/>
    </contour>
    <contour>
      <point x="639" y="559" type="curve"/>
      <point x="543" y="593" type="line"/>
      <point x="520" y="556"/>
      <point x="478" y="503"/>
      <point x="445" y="470" type="curve"/>
      <point x="528" y="438" type="line"/>
      <point x="562" y="469"/>
      <point x="602" y="513"/>
    </contour>
  </outline>
</glyph>
<glyph name="ety147_cid35832_H" format="1">
  <advance width="1000"/>
  <outline>
    <contour>
      <point x="253" y="638" type="line"/>
      <point x="138" y="665" type="line"/>
      <point x="151" y="438" type="line"/>
      <point x="264" y="438" type="line"/>
    </contour>
    <contour>
      <point x="371" y="645" type="curve"/>
      <point x="312" y="706" type="line"/>
      <point x="267" y="693"/>
      <point x="190" y="672"/>
      <point x="138" y="664" type="curve"/>
      <point x="185" y="611" type="line"/>
      <point x="239" y="616"/>
      <point x="312" y="627"/>
    </contour>
  </outline>
</glyph>
<glyph name="ety149_cid36193_H" format="1">
  <advance width="1000"/>
  <outline>
    <contour>
      <point x="690" y="424" type="curve"/>
      <point x="596" y="518" type="line"/>
      <point x="555" y="485"/>
      <point x="491" y="447"/>
      <point x="433" y="421" type="curve"/>
      <point x="448" y="396"/>
      <point x="466" y="354"/>
      <point x="472" y="329" type="curve"/>
      <point x="540" y="353"/>
      <point x="622" y="386"/>
    </contour>
    <contour>
      <point x="560" y="422" type="line"/>
      <point x="434" y="422" type="line"/>
      <point x="434" y="-96" type="line"/>
      <point x="560" y="-96" type="line"/>
    </contour>
  </outline>
</glyph>
<glyph name="ety153_cid36991_H" format="1">
  <advance width="1000"/>
  <outline>
    <contour>
      <point x="411" y="598" type="curve"/>
      <point x="340" y="690" type="line"/>
      <point x="278" y="668"/>
      <point x="181" y="648"/>
      <point x="96" y="636" type="curve"/>
      <point x="108" y="612"/>
      <point x="122" y="573"/>
      <point x="127" y="548" type="curve"/>
      <point x="216" y="556"/>
      <point x="326" y="573"/>
    </contour>
    <contour>
      <point x="228" y="636" type="line"/>
      <point x="94" y="636" type="line"/>
      <point x="94" y="253" type="line"/>
      <point x="228" y="253" type="line"/>
    </contour>
  </outline>
</glyph>
<glyph name="ety154_cid37425_EL" format="1">
  <advance width="1000"/>
  <outline>
    <contour>
      <point x="360" y="813" type="curve"/>
      <point x="339" y="831" type="line"/>
      <point x="297" y="811"/>
      <point x="222" y="779"/>
      <point x="169" y="763" type="curve"/>
      <point x="186" y="745" type="line"/>
      <point x="239" y="761"/>
      <point x="311" y="784"/>
    </contour>
    <contour>
      <point x="199" y="760" type="line"/>
      <point x="170" y="763" type="line"/>
      <point x="182" y="502" type="line"/>
      <point x="211" y="502" type="line"/>
    </contour>
  </outline>
</glyph>
<glyph name="ety155_cid37425_H" format="1">
  <advance width="1000"/>
  <outline>
    <contour>
      <point x="414" y="797" type="curve"/>
      <point x="338" y="855" type="line"/>
      <point x="291" y="828"/>
      <point x="211" y="791"/>
      <point x="154" y="772" type="curve"/>
      <point x="215" y="719" type="line"/>
      <point x="274" y="737"/>
      <point x="351" y="765"/>
    </contour>
    <contour>
      <point x="280" y="769" type="line"/>
      <point x="154" y="771" type="line"/>
      <point x="172" y="514" type="line"/>
      <point x="298" y="514" type="line"/>
    </contour>
  </outline>
</glyph>
<glyph name="ety156_cid37508_EL" format="1">
  <advance width="1000"/>
  <outline>
    <contour>
      <point x="674" y="813" type="curve"/>
      <point x="646" y="834" type="line"/>
      <point x="611" y="804"/>
      <point x="545" y="769"/>
      <point x="489" y="744" type="curve"/>
      <point x="494" y="737"/>
      <point x="499" y="727"/>
      <point x="502" y="721" type="curve"/>
      <point x="560" y="746"/>
      <point x="627" y="779"/>
    </contour>
    <contour>
      <point x="518" y="744" type="line"/>
      <point x="488" y="744" type="line"/>
      <point x="488" y="333" type="line"/>
      <point x="518" y="333" type="line"/>
    </contour>
  </outline>
</glyph>
<glyph name="ety159_cid37529_H" format="1">
  <advance width="1000"/>
  <outline>
    <contour>
      <point x="413" y="796" type="curve"/>
      <point x="338" y="855" type="line"/>
      <point x="291" y="839"/>
      <point x="211" y="815"/>
      <point x="153" y="804" type="curve"/>
      <point x="214" y="751" type="line"/>
      <point x="273" y="759"/>
      <point x="350" y="774"/>
    </contour>
    <contour>
      <point x="280" y="803" type="line"/>
      <point x="154" y="805" type="line"/>
      <point x="171" y="488" type="line"/>
      <point x="297" y="488" type="line"/>
    </contour>
  </outline>
</glyph>
<glyph name="ety164_cid38153_H" format="1">
  <advance width="1000"/>
  <outline>
    <contour>
      <point x="663" y="421" type="curve"/>
      <point x="574" y="521" type="line"/>
      <point x="534" y="488"/>
      <point x="473" y="449"/>
      <point x="418" y="423" type="curve"/>
      <point x="431" y="397"/>
      <point x="449" y="354"/>
      <point x="455" y="328" type="curve"/>
      <point x="519" y="351"/>
      <point x="597" y="383"/>
    </contour>
    <contour>
      <point x="546" y="422" type="line"/>
      <point x="416" y="422" type="line"/>
      <point x="416" y="-96" type="line"/>
      <point x="546" y="-96" type="line"/>
    </contour>
  </outline>
</glyph>
<glyph name="ety165_cid38351_EL" format="1">
  <advance width="1000"/>
  <outline>
    <contour>
      <point x="372" y="818" type="curve"/>
      <point x="336" y="831" type="line"/>
      <point x="296" y="812"/>
      <point x="223" y="783"/>
      <point x="167" y="766" type="curve"/>
      <point x="197" y="753" type="line"/>
      <point x="255" y="770"/>
      <point x="319" y="791"/>
    </contour>
    <contour>
      <point x="197" y="757" type="line"/>
      <point x="167" y="767" type="line"/>
      <point x="179" y="502" type="line"/>
      <point x="208" y="502" type="line"/>
    </contour>
  </outline>
</glyph>
<glyph name="ety166_cid38351_H" format="1">
  <advance width="1000"/>
  <outline>
    <contour>
      <point x="393" y="786" type="curve"/>
      <point x="333" y="856" type="line"/>
      <point x="286" y="834"/>
      <point x="205" y="802"/>
      <point x="150" y="788" type="curve"/>
      <point x="196" y="728" type="line"/>
      <point x="253" y="740"/>
      <point x="331" y="761"/>
    </contour>
    <contour>
      <point x="268" y="761" type="line"/>
      <point x="150" y="789" type="line"/>
      <point x="167" y="532" type="line"/>
      <point x="284" y="532" type="line"/>
    </contour>
  </outline>
</glyph>
<glyph name="ety167_cid38532_H" format="1">
  <advance width="1000"/>
  <outline>
    <contour>
      <point x="658" y="404" type="curve"/>
      <point x="553" y="505" type="line"/>
      <point x="508" y="472"/>
      <point x="438" y="433"/>
      <point x="374" y="407" type="curve"/>
      <point x="389" y="380"/>
      <point x="409" y="334"/>
      <point x="416" y="307" type="curve"/>
      <point x="492" y="330"/>
      <point x="582" y="364"/>
    </contour>
    <contour>
      <point x="513" y="406" type="line"/>
      <point x="374" y="406" type="line"/>
      <point x="374" y="-89" type="line"/>
      <point x="513" y="-89" type="line"/>
    </contour>
  </outline>
</glyph>
<glyph name="ety169_cid39406_H" format="1">
  <advance width="1000"/>
  <outline>
    <contour>
      <point x="688" y="413" type="curve"/>
      <point x="587" y="509" type="line"/>
      <point x="547" y="476"/>
      <point x="483" y="437"/>
      <point x="425" y="411" type="curve"/>
      <point x="440" y="386"/>
      <point x="459" y="342"/>
      <point x="465" y="316" type="curve"/>
      <point x="535" y="340"/>
      <point x="618" y="374"/>
    </contour>
    <contour>
      <point x="563" y="411" type="line"/>
      <point x="424" y="411" type="line"/>
      <point x="424" y="-93" type="line"/>
      <point x="563" y="-93" type="line"/>
    </contour>
  </outline>
</glyph>
<glyph name="ety170_cid39762_EL" format="1">
  <advance width="1000"/>
  <outline>
    <contour>
      <point x="693" y="813" type="curve"/>
      <point x="665" y="834" type="line"/>
      <point x="629" y="804"/>
      <point x="564" y="769"/>
      <point x="508" y="744" type="curve"/>
      <point x="513" y="737"/>
      <point x="518" y="727"/>
      <point x="521" y="721" type="curve"/>
      <point x="578" y="746"/>
      <point x="646" y="779"/>
    </contour>
    <contour>
      <point x="536" y="744" type="line"/>
      <point x="507" y="744" type="line"/>
      <point x="507" y="333" type="line"/>
      <point x="536" y="333" type="line"/>
    </contour>
  </outline>
</glyph>
<glyph name="ety172_cid39843_EL" format="1">
  <advance width="1000"/>
  <outline>
    <contour>
      <point x="347" y="801" type="curve"/>
      <point x="326" y="826" type="line"/>
      <point x="280" y="802"/>
      <point x="199" y="773"/>
      <point x="134" y="751" type="curve"/>
      <point x="138" y="743"/>
      <point x="144" y="733"/>
      <point x="146" y="726" type="curve"/>
      <point x="212" y="746"/>
      <point x="292" y="773"/>
    </contour>
    <contour>
      <point x="163" y="741" type="line"/>
      <point x="133" y="751" type="line"/>
      <point x="148" y="166" type="line"/>
      <point x="178" y="166" type="line"/>
    </contour>
  </outline>
</glyph>
<glyph name="ety173_cid39846_EL" format="1">
  <advance width="1000"/>
  <outline>
    <contour>
      <point x="673" y="448" type="curve"/>
      <point x="646" y="471" type="line"/>
      <point x="608" y="444"/>
      <point x="540" y="410"/>
      <point x="482" y="384" type="curve"/>
      <point x="486" y="377"/>
      <point x="492" y="368"/>
      <point x="494" y="362" type="curve"/>
      <point x="554" y="386"/>
      <point x="623" y="419"/>
    </contour>
    <contour>
      <point x="511" y="384" type="line"/>
      <point x="481" y="384" type="line"/>
      <point x="481" y="-70" type="line"/>
      <point x="511" y="-70" type="line"/>
    </contour>
  </outline>
</glyph>
<glyph name="ety176_cid41825_H" format="1">
  <advance width="1000"/>
  <outline>
    <contour>
      <point x="701" y="424" type="curve"/>
      <point x="605" y="520" type="line"/>
      <point x="564" y="487"/>
      <point x="500" y="449"/>
      <point x="441" y="422" type="curve"/>
      <point x="456" y="397"/>
      <point x="474" y="355"/>
      <point x="481" y="329" type="curve"/>
      <point x="549" y="353"/>
      <point x="632" y="386"/>
    </contour>
    <contour>
      <point x="569" y="422" type="line"/>
      <point x="442" y="422" type="line"/>
      <point x="442" y="-96" type="line"/>
      <point x="569" y="-96" type="line"/>
    </contour>
  </outline>
</glyph>
<glyph name="ety177_cid42572_H" format="1">
  <advance width="1000"/>
  <outline>
    <contour>
      <point x="219" y="476" type="curve"/>
      <point x="173" y="529" type="line"/>
      <point x="145" y="513"/>
      <point x="101" y="497"/>
      <point x="64" y="485" type="curve"/>
      <point x="71" y="470"/>
      <point x="80" y="448"/>
      <point x="84" y="434" type="curve"/>
      <point x="124" y="443"/>
      <point x="176" y="458"/>
    </contour>
    <contour>
      <point x="154" y="485" type="line"/>
      <point x="63" y="485" type="line"/>
      <point x="63" y="314" type="line"/>
      <point x="154" y="314" type="line"/>
    </contour>
  </outline>
</glyph>
<glyph name="ety178_cid42573_H" format="1">
  <advance width="1000"/>
  <outline>
    <contour>
      <point x="224" y="470" type="curve"/>
      <point x="173" y="529" type="line"/>
      <point x="145" y="513"/>
      <point x="101" y="497"/>
      <point x="64" y="485" type="curve"/>
      <point x="72" y="468"/>
      <point x="82" y="444"/>
      <point x="85" y="429" type="curve"/>
      <point x="126" y="437"/>
      <point x="179" y="452"/>
    </contour>
    <contour>
      <point x="154" y="485" type="line"/>
      <point x="63" y="485" type="line"/>
      <point x="63" y="314" type="line"/>
      <point x="154" y="314" type="line"/>
    </contour>
  </outline>
</glyph>
<glyph name="ety179_cid43044_H" format="1">
  <advance width="1000"/>
  <outline>
    <contour>
      <point x="506" y="562" type="curve"/>
      <point x="425" y="646" type="line"/>
      <point x="384" y="619"/>
      <point x="315" y="599"/>
      <point x="250" y="588" type="curve"/>
      <point x="264" y="563"/>
      <point x="279" y="524"/>
      <point x="284" y="500" type="curve"/>
      <point x="356" y="508"/>
      <point x="443" y="527"/>
    </contour>
    <contour>
      <point x="372" y="587" type="line"/>
      <point x="250" y="587" type="line"/>
      <point x="250" y="231" type="line"/>
      <point x="372" y="231" type="line"/>
    </contour>
  </outline>
</glyph>
<glyph name="ety181_cid43414_EL" format="1">
  <advance width="1000"/>
  <outline>
    <contour>
      <point x="368" y="814" type="curve"/>
      <point x="339" y="835" type="line"/>
      <point x="302" y="816"/>
      <point x="231" y="795"/>
      <point x="172" y="782" type="curve"/>
      <point x="177" y="774"/>
      <point x="182" y="765"/>
      <point x="183" y="759" type="curve"/>
      <point x="245" y="770"/>
      <point x="318" y="790"/>
    </contour>
    <contour>
      <point x="202" y="769" type="line"/>
      <point x="172" y="780" type="line"/>
      <point x="188" y="471" type="line"/>
      <point x="218" y="471" type="line"/>
    </contour>
  </outline>
</glyph>
<glyph name="ety182_cid43414_H" format="1">
  <advance width="1000"/>
  <outline>
    <contour>
      <point x="404" y="787" type="curve"/>
      <point x="324" y="858" type="line"/>
      <point x="282" y="837"/>
      <point x="211" y="814"/>
      <point x="148" y="798" type="curve"/>
      <point x="158" y="778"/>
      <point x="171" y="744"/>
      <point x="176" y="724" type="curve"/>
      <point x="248" y="737"/>
      <point x="334" y="759"/>
    </contour>
    <contour>
      <point x="272" y="762" type="line"/>
      <point x="147" y="795" type="line"/>
      <point x="164" y="493" type="line"/>
      <point x="287" y="493" type="line"/>
    </contour>
  </outline>
</glyph>
<glyph name="ety184_cid43895_H" format="1">
  <advance width="1000"/>
  <outline>
    <contour>
      <point x="705" y="424" type="curve"/>
      <point x="623" y="524" type="line"/>
      <point x="587" y="491"/>
      <point x="531" y="452"/>
      <point x="480" y="426" type="curve"/>
      <point x="492" y="400"/>
      <point x="508" y="357"/>
      <point x="514" y="331" type="curve"/>
      <point x="573" y="354"/>
      <point x="644" y="386"/>
    </contour>
    <contour>
      <point x="598" y="426" type="line"/>
      <point x="479" y="426" type="line"/>
      <point x="479" y="-92" type="line"/>
      <point x="598" y="-92" type="line"/>
    </contour>
  </outline>
</glyph>
<glyph name="ety185_cid43920_EL" format="1">
  <advance width="1000"/>
  <outline>
    <contour>
      <point x="662" y="448" type="curve"/>
      <point x="634" y="471" type="line"/>
      <point x="596" y="444"/>
      <point x="529" y="410"/>
      <point x="472" y="385" type="curve"/>
      <point x="476" y="377"/>
      <point x="481" y="368"/>
      <point x="483" y="362" type="curve"/>
      <point x="543" y="386"/>
      <point x="612" y="419"/>
    </contour>
    <contour>
      <point x="501" y="384" type="line"/>
      <point x="471" y="384" type="line"/>
      <point x="471" y="-70" type="line"/>
      <point x="501" y="-70" type="line"/>
    </contour>
  </outline>
</glyph>
<glyph name="ety186_cid43920_H" format="1">
  <advance width="1000"/>
  <outline>
    <contour>
      <point x="710" y="413" type="curve"/>
      <point x="608" y="509" type="line"/>
      <point x="572" y="477"/>
      <point x="515" y="438"/>
      <point x="462" y="412" type="curve"/>
      <point x="477" y="386"/>
      <point x="496" y="343"/>
      <point x="503" y="317" type="curve"/>
      <point x="567" y="341"/>
      <point x="644" y="374"/>
    </contour>
    <contour>
      <point x="594" y="411" type="line"/>
      <point x="462" y="411" type="line"/>
      <point x="462" y="-93" type="line"/>
      <point x="594" y="-93" type="line"/>
    </contour>
  </outline>
</glyph>
<glyph name="ety188_cid44468_EL" format="1">
  <advance width="1000"/>
  <outline>
    <contour>
      <point x="660" y="446" type="curve"/>
      <point x="631" y="469" type="line"/>
      <point x="593" y="442"/>
      <point x="524" y="408"/>
      <point x="465" y="382" type="curve"/>
      <point x="469" y="376"/>
      <point x="475" y="366"/>
      <point x="476" y="360" type="curve"/>
      <point x="537" y="384"/>
      <point x="608" y="417"/>
    </contour>
    <contour>
      <point x="494" y="382" type="line"/>
      <point x="464" y="382" type="line"/>
      <point x="464" y="-67" type="line"/>
      <point x="494" y="-67" type="line"/>
    </contour>
  </outline>
</glyph>
<glyph name="ety190_cid44469_EL" format="1">
  <advance width="1000"/>
  <outline>
    <contour>
      <point x="647" y="446" type="curve"/>
      <point x="619" y="469" type="line"/>
      <point x="580" y="442"/>
      <point x="511" y="408"/>
      <point x="452" y="382" type="curve"/>
      <point x="456" y="376"/>
      <point x="462" y="366"/>
      <point x="464" y="360" type="curve"/>
      <point x="525" y="384"/>
      <point x="595" y="417"/>
    </contour>
    <contour>
      <point x="481" y="382" type="line"/>
      <point x="451" y="382" type="line"/>
      <point x="451" y="-67" type="line"/>
      <point x="481" y="-67" type="line"/>
    </contour>
  </outline>
</glyph>
<glyph name="ety191_cid44469_H" format="1">
  <advance width="1000"/>
  <outline>
    <contour>
      <point x="689" y="424" type="curve"/>
      <point x="597" y="521" type="line"/>
      <point x="556" y="488"/>
      <point x="492" y="449"/>
      <point x="434" y="423" type="curve"/>
      <point x="448" y="397"/>
      <point x="465" y="354"/>
      <point x="471" y="327" type="curve"/>
      <point x="539" y="351"/>
      <point x="621" y="385"/>
    </contour>
    <contour>
      <point x="563" y="422" type="line"/>
      <point x="434" y="422" type="line"/>
      <point x="434" y="-96" type="line"/>
      <point x="563" y="-96" type="line"/>
    </contour>
  </outline>
</glyph>
<glyph name="ety192_cid44551_EL" format="1">
  <advance width="1000"/>
  <outline>
    <contour>
      <point x="673" y="448" type="curve"/>
      <point x="646" y="471" type="line"/>
      <point x="604" y="444"/>
      <point x="527" y="409"/>
      <point x="463" y="384" type="curve"/>
      <point x="467" y="376"/>
      <point x="472" y="368"/>
      <point x="475" y="361" type="curve"/>
      <point x="541" y="385"/>
      <point x="618" y="418"/>
    </contour>
    <contour>
      <point x="491" y="383" type="line"/>
      <point x="462" y="383" type="line"/>
      <point x="462" y="-71" type="line"/>
      <point x="491" y="-71" type="line"/>
    </contour>
  </outline>
</glyph>
<glyph name="ety197_cid46018_H" format="1">
  <advance width="1000"/>
  <outline>
    <contour>
      <point x="628" y="744" type="curve"/>
      <point x="543" y="827" type="line"/>
      <point x="512" y="801"/>
      <point x="457" y="763"/>
      <point x="419" y="743" type="curve"/>
      <point x="484" y="674" type="line"/>
      <point x="524" y="690"/>
      <point x="577" y="716"/>
    </contour>
    <contour>
      <point x="527" y="712" type="line"/>
      <point x="419" y="742" type="line"/>
      <point x="432" y="192" type="line"/>
      <point x="539" y="192" type="line"/>
    </contour>
  </outline>
</glyph>
<glyph name="ety198_cid46103_EL" format="1">
  <advance width="1000"/>
  <outline>
    <contour>
      <point x="693" y="805" type="curve"/>
      <point x="665" y="826" type="line"/>
      <point x="629" y="796"/>
      <point x="564" y="762"/>
      <point x="508" y="736" type="curve"/>
      <point x="513" y="729"/>
      <point x="518" y="719"/>
      <point x="521" y="714" type="curve"/>
      <point x="578" y="738"/>
      <point x="646" y="771"/>
    </contour>
    <contour>
      <point x="536" y="736" type="line"/>
      <point x="507" y="736" type="line"/>
      <point x="507" y="326" type="line"/>
      <point x="536" y="326" type="line"/>
    </contour>
  </outline>
</glyph>
<glyph name="ety204_cid46624_H" format="1">
  <advance width="1000"/>
  <outline>
    <contour>
      <point x="404" y="790" type="curve"/>
      <point x="324" y="854" type="line"/>
      <point x="282" y="835"/>
      <point x="211" y="814"/>
      <point x="148" y="800" type="curve"/>
      <point x="158" y="783"/>
      <point x="171" y="752"/>
      <point x="176" y="734" type="curve"/>
      <point x="248" y="746"/>
      <point x="334" y="765"/>
    </contour>
    <contour>
      <point x="272" y="769" type="line"/>
      <point x="147" y="799" type="line"/>
      <point x="164" y="529" type="line"/>
      <point x="287" y="529" type="line"/>
    </contour>
  </outline>
</glyph>
<glyph name="ety205_cid46660_H" format="1">
  <advance width="1000"/>
  <outline>
    <contour>
      <point x="392" y="786" type="curve"/>
      <point x="333" y="856" type="line"/>
      <point x="279" y="834"/>
      <point x="187" y="802"/>
      <point x="124" y="788" type="curve"/>
      <point x="170" y="728" type="line"/>
      <point x="234" y="739"/>
      <point x="323" y="760"/>
    </contour>
    <contour>
      <point x="250" y="759" type="line"/>
      <point x="124" y="789" type="line"/>
      <point x="138" y="536" type="line"/>
      <point x="263" y="536" type="line"/>
    </contour>
  </outline>
</glyph>
<glyph name="ety209_cid47003_H" format="1">
  <advance width="1000"/>
  <outline>
    <contour>
      <point x="367" y="792" type="curve"/>
      <point x="311" y="858" type="line"/>
      <point x="264" y="844"/>
      <point x="183" y="820"/>
      <point x="129" y="812" type="curve"/>
      <point x="172" y="755" type="line"/>
      <point x="228" y="761"/>
      <point x="305" y="773"/>
    </contour>
    <contour>
      <point x="254" y="782" type="line"/>
      <point x="128" y="812" type="line"/>
      <point x="142" y="559" type="line"/>
      <point x="267" y="559" type="line"/>
    </contour>
  </outline>
</glyph>
<glyph name="ety210_cid47004_H" format="1">
  <advance width="1000"/>
  <outline>
    <contour>
      <point x="366" y="792" type="curve"/>
      <point x="311" y="858" type="line"/>
      <point x="258" y="843"/>
      <point x="168" y="820"/>
      <point x="107" y="812" type="curve"/>
      <point x="150" y="755" type="line"/>
      <point x="212" y="761"/>
      <point x="298" y="773"/>
    </contour>
    <contour>
      <point x="234" y="782" type="line"/>
      <point x="108" y="812" type="line"/>
      <point x="122" y="559" type="line"/>
      <point x="247" y="559" type="line"/>
    </contour>
  </outline>
</glyph>
<glyph name="ety215_cid47293_H" format="1">
  <advance width="1000"/>
  <outline>
    <contour>
      <point x="635" y="673" type="curve"/>
      <point x="528" y="705" type="line"/>
      <point x="508" y="670"/>
      <point x="470" y="621"/>
      <point x="441" y="590" type="curve"/>
      <point x="539" y="559" type="line"/>
      <point x="568" y="588"/>
      <point x="602" y="628"/>
    </contour>
    <contour>
      <point x="568" y="590" type="line"/>
      <point x="442" y="590" type="line"/>
      <point x="442" y="446" type="line"/>
      <point x="568" y="446" type="line"/>
    </contour>
  </outline>
</glyph>
<glyph name="ety216_cid47294_EL" format="1">
  <advance width="1000"/>
  <outline>
    <contour>
      <point x="602" y="697" type="curve"/>
      <point x="576" y="710" type="line"/>
      <point x="554" y="677"/>
      <point x="511" y="628"/>
      <point x="479" y="599" type="curve"/>
      <point x="502" y="587" type="line"/>
      <point x="533" y="616"/>
      <point x="572" y="657"/>
    </contour>
    <contour>
      <point x="511" y="599" type="line"/>
      <point x="480" y="599" type="line"/>
      <point x="480" y="440" type="line"/>
      <point x="511" y="440" type="line"/>
    </contour>
  </outline>
</glyph>
<glyph name="ety217_cid47294_H" format="1">
  <advance width="1000"/>
  <outline>
    <contour>
      <point x="645" y="678" type="curve"/>
      <point x="538" y="710" type="line"/>
      <point x="517" y="674"/>
      <point x="477" y="623"/>
      <point x="446" y="591" type="curve"/>
      <point x="544" y="560" type="line"/>
      <point x="575" y="590"/>
      <point x="611" y="631"/>
    </contour>
    <contour>
      <point x="569" y="591" type="line"/>
      <point x="443" y="591" type="line"/>
      <point x="443" y="447" type="line"/>
      <point x="569" y="447" type="line"/>
    </contour>
  </outline>
</glyph>
<glyph name="ety219_cid47298_EL" format="1">
  <advance width="1000"/>
  <outline>
    <contour>
      <point x="608" y="704" type="curve"/>
      <point x="582" y="718" type="line"/>
      <point x="560" y="690"/>
      <point x="518" y="649"/>
      <point x="486" y="624" type="curve"/>
      <point x="508" y="612" type="line"/>
      <point x="539" y="636"/>
      <point x="577" y="670"/>
    </contour>
    <contour>
      <point x="517" y="623" type="line"/>
      <point x="486" y="623" type="line"/>
      <point x="486" y="482" type="line"/>
      <point x="517" y="482" type="line"/>
    </contour>
  </outline>
</glyph>
<glyph name="ety223_cid47302_H" format="1">
  <advance width="1000"/>
  <outline>
    <contour>
      <point x="635" y="673" type="curve"/>
      <point x="528" y="705" type="line"/>
      <point x="508" y="670"/>
      <point x="470" y="621"/>
      <point x="441" y="590" type="curve"/>
      <point x="539" y="559" type="line"/>
      <point x="568" y="588"/>
      <point x="602" y="628"/>
    </contour>
    <contour>
      <point x="566" y="590" type="line"/>
      <point x="440" y="590" type="line"/>
      <point x="440" y="446" type="line"/>
      <point x="566" y="446" type="line"/>
    </contour>
  </outline>
</glyph>
<glyph name="ety226_cid59752_EL" format="1">
  <advance width="1000"/>
  <outline>
    <contour>
      <point x="355" y="795" type="curve"/>
      <point x="337" y="818" type="line"/>
      <point x="290" y="806"/>
      <point x="206" y="784"/>
      <point x="150" y="775" type="curve"/>
      <point x="165" y="754" type="line"/>
      <point x="222" y="762"/>
      <point x="302" y="774"/>
    </contour>
    <contour>
      <point x="182" y="765" type="line"/>
      <point x="151" y="775" type="line"/>
      <point x="179" y="377" type="line"/>
      <point x="209" y="377" type="line"/>
    </contour>
  </outline>
</glyph>
<glyph name="ety227_cid59752_H" format="1">
  <advance width="1000"/>
  <outline>
    <contour>
      <point x="377" y="760" type="curve"/>
      <point x="319" y="853" type="line"/>
      <point x="263" y="831"/>
      <point x="172" y="798"/>
      <point x="111" y="786" type="curve"/>
      <point x="161" y="697" type="line"/>
      <point x="223" y="708"/>
      <point x="312" y="731"/>
    </contour>
    <contour>
      <point x="248" y="747" type="line"/>
      <point x="111" y="785" type="line"/>
      <point x="130" y="393" type="line"/>
      <point x="265" y="393" type="line"/>
    </contour>
  </outline>
</glyph>
<glyph name="ety228_cid60455_EL" format="1">
  <advance width="1000"/>
  <outline>
    <contour>
      <point x="637" y="813" type="curve"/>
      <point x="609" y="834" type="line"/>
      <point x="574" y="804"/>
      <point x="508" y="769"/>
      <point x="452" y="744" type="curve"/>
      <point x="457" y="737"/>
      <point x="462" y="727"/>
      <point x="465" y="721" type="curve"/>
      <point x="523" y="746"/>
      <point x="590" y="779"/>
    </contour>
    <contour>
      <point x="480" y="744" type="line"/>
      <point x="451" y="744" type="line"/>
      <point x="451" y="333" type="line"/>
      <point x="480" y="333" type="line"/>
    </contour>
  </outline>
</glyph>
<glyph name="ety230_cid60723_H" format="1">
  <advance width="1000"/>
  <outline>
    <contour>
      <point x="663" y="421" type="curve"/>
      <point x="575" y="521" type="line"/>
      <point x="536" y="488"/>
      <point x="475" y="449"/>
      <point x="420" y="423" type="curve"/>
      <point x="434" y="397"/>
      <point x="451" y="354"/>
      <point x="457" y="328" type="curve"/>
      <point x="521" y="351"/>
      <point x="598" y="383"/>
    </contour>
    <contour>
      <point x="546" y="422" type="line"/>
      <point x="418" y="422" type="line"/>
      <point x="418" y="-96" type="line"/>
      <point x="546" y="-96" type="line"/>
    </contour>
  </outline>
</glyph>
<glyph name="ety231_cid60941_EL" format="1">
  <advance width="1000"/>
  <outline>
    <contour>
      <point x="355" y="795" type="curve"/>
      <point x="337" y="818" type="line"/>
      <point x="290" y="806"/>
      <point x="206" y="784"/>
      <point x="150" y="775" type="curve"/>
      <point x="165" y="754" type="line"/>
      <point x="222" y="762"/>
      <point x="302" y="774"/>
    </contour>
    <contour>
      <point x="182" y="765" type="line"/>
      <point x="151" y="775" type="line"/>
      <point x="174" y="453" type="line"/>
      <point x="203" y="453" type="line"/>
    </contour>
  </outline>
</glyph>
<glyph name="ety232_cid60941_H" format="1">
  <advance width="1000"/>
  <outline>
    <contour>
      <point x="377" y="771" type="curve"/>
      <point x="319" y="853" type="line"/>
      <point x="263" y="833"/>
      <point x="172" y="805"/>
      <point x="111" y="794" type="curve"/>
      <point x="161" y="716" type="line"/>
      <point x="223" y="726"/>
      <point x="312" y="746"/>
    </contour>
    <contour>
      <point x="248" y="761" type="line"/>
      <point x="111" y="795" type="line"/>
      <point x="130" y="453" type="line"/>
      <point x="265" y="453" type="line"/>
    </contour>
  </outline>
</glyph>
<glyph name="ety233_cid61511_EL" format="1">
  <advance width="1000"/>
  <outline>
    <contour>
      <point x="684" y="448" type="curve"/>
      <point x="657" y="471" type="line"/>
      <point x="619" y="444"/>
      <point x="551" y="410"/>
      <point x="493" y="384" type="curve"/>
      <point x="497" y="377"/>
      <point x="503" y="368"/>
      <point x="505" y="362" type="curve"/>
      <point x="565" y="386"/>
      <point x="633" y="419"/>
    </contour>
    <contour>
      <point x="522" y="384" type="line"/>
      <point x="492" y="384" type="line"/>
      <point x="492" y="-70" type="line"/>
      <point x="522" y="-70" type="line"/>
    </contour>
  </outline>
</glyph>
<glyph name="ety234_cid61511_H" format="1">
  <advance width="1000"/>
  <outline>
    <contour>
      <point x="699" y="424" type="curve"/>
      <point x="617" y="520" type="line"/>
      <point x="579" y="487"/>
      <point x="520" y="448"/>
      <point x="467" y="422" type="curve"/>
      <point x="480" y="397"/>
      <point x="496" y="356"/>
      <point x="502" y="330" type="curve"/>
      <point x="563" y="354"/>
      <point x="637" y="386"/>
    </contour>
    <contour>
      <point x="590" y="422" type="line"/>
      <point x="466" y="422" type="line"/>
      <point x="466" y="-96" type="line"/>
      <point x="590" y="-96" type="line"/>
    </contour>
  </outline>
</glyph>
<glyph name="ety236_cid61698_EL" format="1">
  <advance width="1000"/>
  <outline>
    <contour>
      <point x="718" y="813" type="curve"/>
      <point x="689" y="834" type="line"/>
      <point x="654" y="804"/>
      <point x="588" y="769"/>
      <point x="532" y="744" type="curve"/>
      <point x="537" y="737"/>
      <point x="542" y="727"/>
      <point x="545" y="721" type="curve"/>
      <point x="603" y="746"/>
      <point x="671" y="779"/>
    </contour>
    <contour>
      <point x="561" y="744" type="line"/>
      <point x="531" y="744" type="line"/>
      <point x="531" y="333" type="line"/>
      <point x="561" y="333" type="line"/>
    </contour>
  </outline>
</glyph>
